<?xml version="1.0" standalone="no"?>
<!DOCTYPE svg PUBLIC "-//W3C//DTD SVG 20010904//EN"
 "http://www.w3.org/TR/2001/REC-SVG-20010904/DTD/svg10.dtd">
<svg version="1.0" xmlns="http://www.w3.org/2000/svg"
 width="300.000000pt" height="300.000000pt" viewBox="0 0 300.000000 300.000000"
 preserveAspectRatio="xMidYMid meet">
<metadata>
Created by potrace 1.10, written by Peter Selinger 2001-2011
</metadata>
<g transform="translate(0.000000,300.000000) scale(0.100000,-0.100000)"
fill="#000000" stroke="none">
<path d="M2247 2593 c-3 -5 -25 -60 -50 -123 -24 -63 -68 -168 -97 -233 -29
-64 -49 -124 -46 -133 12 -32 42 -8 78 66 33 66 129 299 140 339 4 14 33 -30
144 -217 62 -105 100 -152 125 -152 34 0 33 28 -3 71 -18 23 -67 100 -108 171
-41 70 -91 148 -110 173 -32 41 -62 56 -73 38z"/>
<path d="M2281 2366 c-9 -10 -10 -40 -6 -98 8 -103 -8 -297 -36 -426 -151
-698 -664 -1203 -1374 -1353 -66 -14 -155 -23 -262 -26 -147 -5 -163 -8 -168
-24 -11 -34 4 -39 118 -39 271 1 526 64 792 196 193 95 311 180 460 329 277
278 445 609 510 1010 21 128 25 406 6 429 -17 20 -25 20 -40 2z"/>
</g>
</svg>
